<?xml version="1.0" encoding="utf-8"?>
<!-- Generator: Adobe Illustrator 16.0.0, SVG Export Plug-In . SVG Version: 6.00 Build 0)  -->
<!DOCTYPE svg PUBLIC "-//W3C//DTD SVG 1.1//EN" "http://www.w3.org/Graphics/SVG/1.1/DTD/svg11.dtd">
<svg version="1.1" id="Layer_1" xmlns="http://www.w3.org/2000/svg" xmlns:xlink="http://www.w3.org/1999/xlink" x="0px" y="0px"
	 width="128px" height="128px" viewBox="0 0 128 128" enable-background="new 0 0 128 128" xml:space="preserve">
<g>
	<g>
		<g>
			<path fill="#282D33" d="M53.014,42.126C52.71,33.941,46.12,27.53,38.01,27.53c-3.841,0-7.492,1.461-10.281,4.115l-2.757-2.898
				c3.536-3.364,8.167-5.217,13.038-5.217c10.271,0,18.618,8.104,19.001,18.448L53.014,42.126z"/>
		</g>
		<g>
			<path fill="#282D33" d="M57.088,44.052H0.364l-0.246-1.717C0.038,41.77,0,41.287,0,40.814c0-5.365,3.958-9.817,9.09-10.554
				c2.266-6.688,8.494-11.243,15.62-11.243c4.234,0,8.331,1.673,11.397,4.622c0.665-0.073,1.294-0.109,1.903-0.109
				c10.271,0,18.618,8.104,19.001,18.448L57.088,44.052z M4.043,40.052h48.755C51.563,32.883,45.421,27.53,38.01,27.53
				c-0.706,0-1.465,0.065-2.32,0.201l-1.063,0.167l-0.726-0.794c-2.408-2.635-5.673-4.087-9.191-4.087
				c-5.77,0-10.765,3.952-12.147,9.611l-0.373,1.525l-1.689-0.003C7.206,34.153,4.418,36.736,4.043,40.052z"/>
		</g>
	</g>
	<g>
		<g>
			<path fill="#282D33" d="M53.344,117.004c-0.913,0-1.737-0.628-1.948-1.556l-2.112-9.277c-0.245-1.077,0.429-2.149,1.506-2.395
				c1.075-0.246,2.148,0.429,2.394,1.506l2.112,9.277c0.245,1.077-0.429,2.149-1.506,2.395
				C53.641,116.988,53.491,117.004,53.344,117.004z"/>
		</g>
		<g>
			<path fill="#282D33" d="M61.24,117.004c-0.147,0-0.296-0.016-0.446-0.05c-1.077-0.245-1.751-1.316-1.506-2.394l2.11-9.277
				c0.245-1.077,1.315-1.753,2.394-1.507c1.077,0.245,1.751,1.316,1.506,2.394l-2.11,9.277
				C62.977,116.375,62.152,117.004,61.24,117.004z"/>
		</g>
		<g>
			<path fill="#282D33" d="M66.258,127.52H48.675v-14.209h17.583V127.52z M52.675,123.52h9.583v-6.209h-9.583V123.52z"/>
		</g>
		<g>
			<g>
				<g>
					<path fill="#282D33" d="M41.651,98.701c-0.452,0-0.907-0.152-1.281-0.465C20.894,81.975,10.765,60.852,13.275,41.733
						c0.144-1.095,1.153-1.863,2.243-1.723c1.095,0.144,1.867,1.148,1.723,2.243c-2.331,17.753,7.274,37.534,25.693,52.913
						c0.848,0.708,0.961,1.969,0.253,2.817C42.792,98.457,42.223,98.701,41.651,98.701z"/>
				</g>
				<g>
					<path fill="#282D33" d="M23.72,22.378c-0.413,0-0.829-0.127-1.187-0.391c-0.888-0.656-1.077-1.909-0.42-2.797
						C30.766,7.475,43.98,0.481,57.461,0.481c0.002,0,0.003,0,0.006,0c1.104,0,2,0.896,2,2c0,1.104-0.896,2-2,2c0,0-0.003,0-0.005,0
						c-12.218,0-24.229,6.387-32.131,17.085C24.938,22.097,24.333,22.378,23.72,22.378z"/>
				</g>
				<g>
					<path fill="#282D33" d="M99.861,45.67c-1.021,0-1.892-0.777-1.989-1.813c-0.051-0.535-0.108-1.068-0.179-1.6
						C95.567,21.4,77.524,4.481,57.466,4.481c-1.104,0-2-0.896-2-2s0.896-2,2-2c22.051,0,41.879,18.531,44.199,41.31
						c0.071,0.522,0.135,1.105,0.189,1.692c0.104,1.1-0.704,2.075-1.804,2.178C99.986,45.667,99.924,45.67,99.861,45.67z"/>
				</g>
				<g>
					<path fill="#282D33" d="M72.968,99.08c-0.563,0-1.123-0.236-1.519-0.697c-0.72-0.838-0.623-2.101,0.215-2.82
						c10.487-9.008,17.987-18.67,22.291-28.719c0.435-1.016,1.609-1.485,2.626-1.052c1.016,0.436,1.486,1.611,1.052,2.626
						c-4.547,10.616-12.407,20.77-23.363,30.18C73.893,98.921,73.429,99.08,72.968,99.08z"/>
				</g>
				<g>
					<path fill="none" stroke="#282D33" stroke-width="4" stroke-linecap="round" stroke-linejoin="round" d="M66.533,102.202"/>
				</g>
				<g>
					<path fill="#282D33" d="M46.063,98.355c-0.568,0-1.133-0.241-1.528-0.709C29.975,80.426,23.93,60.62,27.514,41.877
						c0.208-1.085,1.258-1.793,2.34-1.589c1.085,0.208,1.796,1.255,1.589,2.34c-3.352,17.533,2.382,36.155,16.147,52.436
						c0.713,0.844,0.607,2.105-0.236,2.818C46.978,98.2,46.519,98.355,46.063,98.355z"/>
				</g>
				<g>
					<path fill="#282D33" d="M35.954,26.888c-0.338,0-0.68-0.086-0.994-0.266c-0.958-0.55-1.289-1.772-0.738-2.73
						C39.383,14.902,46.84,7.138,56.387,0.813c0.921-0.609,2.162-0.358,2.772,0.563c0.61,0.921,0.358,2.162-0.563,2.772
						c-9.023,5.978-16.056,13.29-20.905,21.735C37.321,26.527,36.647,26.888,35.954,26.888z"/>
				</g>
				<g>
					<path fill="#282D33" d="M53.619,97.915c-0.866,0-1.664-0.567-1.919-1.44c-5.281-18.087-7.107-36.456-5.427-54.596
						c0.102-1.1,1.077-1.905,2.176-1.807c1.1,0.102,1.909,1.076,1.807,2.176C48.623,59.885,50.4,77.752,55.54,95.354
						c0.31,1.061-0.299,2.171-1.359,2.48C53.994,97.889,53.805,97.915,53.619,97.915z"/>
				</g>
				<g>
					<path fill="#282D33" d="M61.335,97.995c-0.175,0-0.353-0.023-0.53-0.072c-1.065-0.292-1.692-1.393-1.4-2.458
						c7.948-28.988,7.32-58.204-1.856-86.928c-2.431,7.126-4.315,14.333-5.618,21.494c-0.198,1.087-1.24,1.807-2.326,1.61
						c-1.087-0.198-1.808-1.239-1.61-2.326c1.673-9.198,4.28-18.466,7.746-27.547c0.296-0.775,1.04-1.287,1.869-1.287
						c0.007,0,0.014,0,0.021,0c0.837,0.009,1.58,0.539,1.862,1.327c11.168,31.24,12.436,63.107,3.769,94.716
						C63.019,97.411,62.214,97.995,61.335,97.995z"/>
				</g>
				<g>
					<path fill="#282D33" d="M86.035,51.446c-1.052,0-1.934-0.822-1.995-1.886C83.015,31.656,73.188,15.524,56.37,4.137
						c-0.915-0.62-1.154-1.863-0.535-2.777c0.619-0.915,1.864-1.155,2.777-0.535c17.874,12.102,28.323,29.329,29.422,48.507
						c0.063,1.103-0.78,2.048-1.883,2.111C86.112,51.445,86.074,51.446,86.035,51.446z"/>
				</g>
				<g>
					<path fill="#282D33" d="M68.851,98.271c-0.451,0-0.905-0.152-1.279-0.464c-0.849-0.707-0.963-1.969-0.256-2.816
						c7.339-8.804,12.354-18.181,14.907-27.87c0.281-1.067,1.369-1.704,2.443-1.424c1.068,0.281,1.706,1.375,1.424,2.443
						c-2.703,10.26-7.986,20.155-15.702,29.411C69.992,98.026,69.424,98.271,68.851,98.271z"/>
				</g>
				<g>
					<path fill="none" stroke="#282D33" stroke-width="4" stroke-linecap="round" stroke-linejoin="round" d="M61.081,102.148"/>
				</g>
			</g>
			<g>
				<path fill="#282D33" d="M63.702,107.727H51.234c-0.508,0-0.997-0.193-1.368-0.54l-9.735-9.122
					c-0.599-0.561-0.794-1.431-0.492-2.194c0.302-0.763,1.039-1.265,1.86-1.265h31.935c0.82,0,1.559,0.501,1.86,1.265
					s0.106,1.634-0.492,2.194l-9.731,9.121C64.699,107.533,64.21,107.727,63.702,107.727z M52.024,103.727h10.887l5.463-5.121
					H46.559L52.024,103.727z"/>
			</g>
		</g>
		<g>
			<path fill="#282D33" d="M127.905,69.492l-1.915-0.049H72.225l0.315-2.275c0.63-4.533,3.881-8.178,8.155-9.36
				c0.783-8.816,8.162-15.75,17.119-15.75c7.84,0,14.646,5.406,16.611,12.877c0.409-0.042,0.818-0.064,1.225-0.064
				c6.81,0,12.35,5.576,12.35,12.43l-0.015,0.274L127.905,69.492z M77.203,65.443h46.593c-0.841-3.757-4.174-6.572-8.146-6.572
				c-0.739,0-1.498,0.108-2.255,0.321l-2.214,0.623l-0.31-2.279c-0.891-6.544-6.504-11.479-13.058-11.479
				c-7.271,0-13.188,5.968-13.188,13.305v1.783l-1.771,0.305C80.377,61.736,78.279,63.278,77.203,65.443z"/>
		</g>
	</g>
</g>
</svg>
